<svg
  width="0"
  height="0"
  class="hidden"
>
  <symbol
    fill="currentColor"
    xmlns="http://www.w3.org/2000/svg"
    viewBox="0 0 40 40"
    id="fb"
  >
    <path
      d="M0 20.111C0 30.54 7.221 38.323 16.666 39.999V25.554H11.666V19.999H16.666V15.554C16.666 10.554 19.888 7.778 24.444 7.778C25.888 7.778 27.444 7.999 28.888 8.221V13.333H26.333C23.888 13.333 23.333 14.554 23.333 16.111V19.999H28.666L27.778 25.554H23.333V39.999C32.778 38.323 39.999 30.56 39.999 20.111C39.999 9.49 30.999 0 19.999 0C8.999 0 0 9.49 0 20.111Z"
      fill="inherit"
    ></path>
  </symbol>
  <symbol
    fill="currentColor"
    xmlns="http://www.w3.org/2000/svg"
    viewBox="0 0 40 40"
    id="instagram"
  >
    <path
      d="M37.738 27.347C36.773 29.676 35.359 31.793 33.576 33.575C31.793 35.358 29.676 36.773 27.347 37.738C25.17 38.703 22.521 39.199 19.999 39.199C14.907 39.199 10.24 37.176 6.423 33.575C2.822 29.975 0.799 25.91 0.799 19.999C0.799 14.907 2.822 10.23 6.423 6.423C10.24 2.822 14.907 0.799 19.999 0.799C22.521 0.799 25.17 1.296 27.347 2.261C29.676 3.226 31.793 4.64 33.576 6.423C35.359 8.205 36.773 10.322 37.738 12.652C38.703 14.981 39.199 17.478 39.199 19.999C39.199 22.521 38.703 25.17 37.738 27.347ZM29.999 12.221C29.999 10.999 28.999 9.999 27.777 9.999H12.221C10.999 9.999 9.999 10.999 9.999 12.221V27.777C9.999 28.999 10.999 29.999 12.221 29.999H27.777C28.999 29.999 29.999 28.999 29.999 27.777V12.221ZM26.995 27.999H13.5C12.449 27.999 11.999 27.549 11.999 26.993V18.999H14.97C14.35 19.323 13.999 19.657 13.999 19.999C13.999 21.59 14.632 23.116 15.757 24.242C16.882 25.367 18.408 25.999 19.999 25.999C21.591 25.999 23.117 25.367 24.242 24.242C25.367 23.116 25.999 21.59 25.999 19.999C25.999 19.657 25.963 19.323 25.901 18.999H27.999V26.993C27.999 27.259 27.894 27.515 27.705 27.704C27.517 27.892 27.262 27.999 26.995 27.999ZM27.197 15.799H24.799C24.469 15.799 24.199 15.529 24.197 15.199V12.801C24.197 12.641 24.261 12.488 24.374 12.375C24.487 12.263 24.64 12.199 24.799 12.199H27.197C27.357 12.199 27.51 12.263 27.623 12.375C27.736 12.488 27.799 12.641 27.799 12.801V15.199C27.799 15.358 27.735 15.511 27.622 15.623C27.509 15.736 27.357 15.799 27.197 15.799ZM22.828 22.827C22.457 23.198 22.16 23.493 21.53 23.694C21.45 23.895 20.525 23.999 19.999 23.999C18.938 23.999 17.92 23.578 17.17 22.828C16.419 22.78 15.998 21.6 15.997 19.999C15.997 18.938 16.418 17.92 17.169 17.17C17.919 16.419 18.936 15.997 19.997 15.997C20.523 15.997 21.43 16.1 21.529 16.301C22.14 16.502 22.455 16.797 22.827 17.168C23.198 17.54 23.493 17.981 23.694 18.466C23.896 18.951 23.999 19.472 23.999 19.997C24 20.523 23.896 21.43 23.695 21.528C23.494 22.14 23.2 22.455 22.828 22.827Z"
      fill="inherit"
    ></path>
  </symbol>
  <symbol
    fill="currentColor"
    xmlns="http://www.w3.org/2000/svg"
    viewBox="0 0 40 40"
    id="tg"
  >
    <path
      d="M34.142 34.141C30.391 37.892 25.304 39.999 19.999 39.999C14.695 39.999 9.608 37.892 5.857 34.141C2.107 30.391 0 25.303 0 19.999C0 14.695 2.107 9.608 5.857 5.857C9.608 2.106 14.695 0 19.999 0C25.304 0 30.391 2.106 34.142 5.857C37.892 9.608 39.999 14.695 39.999 19.999C39.999 25.303 37.892 30.391 34.142 34.141ZM29.237 12.814C29.213 12.604 29.112 12.41 28.952 12.272C28.724 12.115 28.453 12.33 28.177 12.39C27.427 12.52 26.269 12.454 20.717 14.764C18.772 15.574 14.882 17.249 9.52 19.789C8.107 20.164 7.609 20.534 7.564 20.894C7.489 21.502 8.252 21.742 9.289 22.69L9.727 22.207C10.747 22.539 12.122 22.927 12.834 22.942C13.484 22.957 14.207 22.692 15.4 22.142C20.452 18.464 23.264 16.607 23.439 16.567C23.564 16.537 23.739 16.502 23.854 16.607C23.972 16.709 23.959 16.907 23.947 16.959C23.872 17.282 20.879 20.62 19.332 21.502C18.849 21.952 18.507 22.269 18.437 22.342C18.283 22.499 18.126 22.654 17.967 22.807C17.17 23.722 16.307 24.407 18.4 25.527C18.822 26.67 19.477 26.509 20.129 26.954C20.839 27.439 21.549 27.922 22.469 28.527C22.702 28.677 22.927 28.839 23.144 28.994C23.972 29.584 24.719 30.114 25.637 30.29C26.172 29.979 26.724 29.479 27.4 27.979C27.667 24.437 28.969 16.764 29.269 13.602C29.288 13.339 29.277 13.75 29.237 12.814Z"
      fill="inherit"
    ></path>
  </symbol>
  <symbol
    fill="currentColor"
    xmlns="http://www.w3.org/2000/svg"
    viewBox="0 0 40 40"
    id="vk"
  >
    <path
      d="M19.999 39.199C9.395 39.199 0.799 30.603 0.799 19.999C0.799 9.395 9.395 0.799 19.999 0.799C30.603 0.799 39.199 9.395 39.199 19.999C39.199 30.603 30.603 39.199 19.999 39.199ZM29.659 14.841C29.609 14.691 29.343 14.633 28.955 14.633H25.393C25.307 14.632 25.222 14.652 25.145 14.691C25.41 14.753 24.953 14.913 24.923 14.965C24.589 15.842 24.191 16.694 23.733 17.513C22.249 20.59 21.701 20.59 21.519 20.59C21.439 20.59 21.36 20.36 21.291 19.993C20.767 19.647 20.791 18.805 20.811 18.63C20.811 17.927 20.817 17.799 20.817 17.679C20.817 17.127 20.835 16.659 20.853 16.245C20.911 14.787 20.897 14.361 20.237 14.203C19.911 14.121 19.679 14.63 18.779 14.51H18.317C17.487 14.51 16.651 14.85 16.187 14.317C16.3 14.396 15.893 14.512 15.789 14.655C16.45 14.703 16.467 14.833 16.715 15.175C17.61 15.647 17.63 16.631 17.63 16.725C17.93 17.225 17.219 19.635 16.543 20.11C16.458 20.58 16.362 20.82 16.265 20.83C15.747 20.83 15.101 19.331 14.47 17.479C13.397 16.343 13.1 15.333 12.893 15.79C12.801 14.861 12.669 14.615 12.265 14.615H9.235C8.897 14.615 8.587 14.809 8.737 15.171C8.757 15.223 11.137 20.819 13.781 23.609C15.941 25.887 18.379 26.51 18.847 26.51H20.221C20.475 26.51 20.835 25.789 20.835 25.333C20.835 23.873 21.327 23.325 21.711 23.201C21.773 23.181 21.837 23.171 21.901 23.171C22.409 23.171 22.913 23.755 23.495 24.431C23.885 24.885 24.285 25.351 24.691 25.635C25.219 25.999 25.655 26.53 25.863 26.53H28.863C29.27 26.41 29.507 25.905 29.647 25.629C29.731 25.463 29.691 25.241 29.521 24.955C29.517 24.947 29.511 24.931 29.499 24.915C29.81 24.137 27.383 22.461 27.383 22.461C25.817 20.995 25.817 20.897 27.291 18.965L28.17 18.7C29.643 15.805 29.747 15.79 29.659 14.841Z"
      fill="inherit"
    ></path>
  </symbol>
</svg>